<?xml version="1.0" standalone="no"?>
<svg
  width="600"
  height="600"
  viewBox="0 0 600 600"
  xmlns="http://www.w3.org/2000/svg"
>
  <g transform="translate(300,300)">
    <path d="M136.2,-214.6C167.1,-192,176.3,-138.4,198.4,-90.5C220.4,-42.6,255.2,-0.4,249.7,35.7C244.2,71.9,198.4,102.1,161.2,133C124,164,95.4,195.7,56.8,218.6C18.1,241.5,-30.5,255.5,-74.3,245.9C-118,236.3,-156.9,202.9,-168.8,161.6C-180.6,120.3,-165.5,71,-165.2,27.9C-164.9,-15.1,-179.3,-51.8,-173.6,-85.5C-167.9,-119.3,-142.1,-150.1,-109.8,-172C-77.5,-193.9,-38.7,-207,6.9,-217.8C52.6,-228.5,105.2,-237.1,136.2,-214.6Z" fill="#9900ef" />
  </g>
</svg>
  